<svg width="27" height="21" viewBox="0 0 27 21" fill="none" xmlns="http://www.w3.org/2000/svg">
<path d="M27 8.62508V9.37507C27 9.9964 26.4963 10.5001 25.875 10.5001H25.5L24.276 19.0682C24.1176 20.1766 23.1683 21 22.0486 21H4.95141C3.8317 21 2.88239 20.1766 2.724 19.0682L1.5 10.5001H1.125C0.503672 10.5001 0 9.9964 0 9.37507V8.62508C0 8.00375 0.503672 7.50009 1.125 7.50009H4.28161L9.28692 0.617895C9.77419 -0.0520387 10.7123 -0.20021 11.3823 0.287053C12.0523 0.774315 12.2004 1.71242 11.7131 2.3824L7.99111 7.50009H19.0089L15.2869 2.38235C14.7996 1.71242 14.9478 0.774269 15.6178 0.287006C16.2877 -0.200257 17.2259 -0.0521324 17.7131 0.617848L22.7184 7.50009H25.875C26.4963 7.50009 27 8.00375 27 8.62508ZM14.625 16.875V11.6251C14.625 11.0037 14.1213 10.5001 13.5 10.5001C12.8787 10.5001 12.375 11.0037 12.375 11.6251V16.875C12.375 17.4963 12.8787 18 13.5 18C14.1213 18 14.625 17.4963 14.625 16.875ZM19.875 16.875V11.6251C19.875 11.0037 19.3713 10.5001 18.75 10.5001C18.1287 10.5001 17.625 11.0037 17.625 11.6251V16.875C17.625 17.4963 18.1287 18 18.75 18C19.3713 18 19.875 17.4963 19.875 16.875ZM9.375 16.875V11.6251C9.375 11.0037 8.87133 10.5001 8.25 10.5001C7.62867 10.5001 7.125 11.0037 7.125 11.6251V16.875C7.125 17.4963 7.62867 18 8.25 18C8.87133 18 9.375 17.4963 9.375 16.875Z" fill="#444444"/>
</svg>
