<svg width="24" height="22" viewBox="0 0 24 22" fill="none" xmlns="http://www.w3.org/2000/svg">
<path d="M2.89547 18.1205L3.71578 17.131C3.87904 16.9403 3.96437 16.6901 3.95344 16.4342V16.2717C3.95344 15.9107 3.77344 15.7143 3.42188 15.7143H0.75C0.650544 15.7143 0.555161 15.7557 0.484835 15.8294C0.414509 15.903 0.375 16.003 0.375 16.1071V16.8929C0.375 16.997 0.414509 17.097 0.484835 17.1706C0.555161 17.2443 0.650544 17.2857 0.75 17.2857H1.82016C1.63831 17.4776 1.46619 17.6794 1.30453 17.8902L1.04156 18.234C0.854062 18.4829 0.795469 18.7314 0.910313 18.9647L0.959531 19.0595C1.10016 19.3423 1.25438 19.4464 1.53375 19.4464H1.75547C2.23969 19.4464 2.50266 19.5662 2.50266 19.8928C2.50266 20.1246 2.30578 20.2965 1.82953 20.2965C1.58069 20.2944 1.33453 20.2424 1.10438 20.1433C0.800156 19.9527 0.554062 19.9714 0.373125 20.2965L0.111094 20.7537C-0.0632813 21.0547 -0.0384375 21.3292 0.234375 21.5364C0.595781 21.7667 1.18969 22 1.96875 22C3.57 22 4.24219 20.8828 4.24219 19.8334C4.24078 19.1272 3.81469 18.372 2.89547 18.1205ZM23.25 9.42857H8.25C8.05109 9.42857 7.86032 9.51135 7.71967 9.6587C7.57902 9.80605 7.5 10.0059 7.5 10.2143V11.7857C7.5 11.9941 7.57902 12.1939 7.71967 12.3413C7.86032 12.4886 8.05109 12.5714 8.25 12.5714H23.25C23.4489 12.5714 23.6397 12.4886 23.7803 12.3413C23.921 12.1939 24 11.9941 24 11.7857V10.2143C24 10.0059 23.921 9.80605 23.7803 9.6587C23.6397 9.51135 23.4489 9.42857 23.25 9.42857ZM23.25 1.57143H8.25C8.05109 1.57143 7.86032 1.65421 7.71967 1.80156C7.57902 1.94891 7.5 2.14876 7.5 2.35714V3.92857C7.5 4.13696 7.57902 4.3368 7.71967 4.48416C7.86032 4.63151 8.05109 4.71429 8.25 4.71429H23.25C23.4489 4.71429 23.6397 4.63151 23.7803 4.48416C23.921 4.3368 24 4.13696 24 3.92857V2.35714C24 2.14876 23.921 1.94891 23.7803 1.80156C23.6397 1.65421 23.4489 1.57143 23.25 1.57143ZM23.25 17.2857H8.25C8.05109 17.2857 7.86032 17.3685 7.71967 17.5158C7.57902 17.6632 7.5 17.863 7.5 18.0714V19.6429C7.5 19.8512 7.57902 20.0511 7.71967 20.1984C7.86032 20.3458 8.05109 20.4286 8.25 20.4286H23.25C23.4489 20.4286 23.6397 20.3458 23.7803 20.1984C23.921 20.0511 24 19.8512 24 19.6429V18.0714C24 17.863 23.921 17.6632 23.7803 17.5158C23.6397 17.3685 23.4489 17.2857 23.25 17.2857ZM0.75 6.28571H3.75C3.84946 6.28571 3.94484 6.24432 4.01516 6.17065C4.08549 6.09697 4.125 5.99705 4.125 5.89286V5.10714C4.125 5.00295 4.08549 4.90303 4.01516 4.82935C3.94484 4.75568 3.84946 4.71429 3.75 4.71429H3V0.392857C3 0.288665 2.96049 0.18874 2.89016 0.115065C2.81984 0.0413903 2.72446 0 2.625 0H1.5C1.43049 0.00012996 1.36239 0.0204957 1.30329 0.0588237C1.24419 0.0971517 1.19642 0.151934 1.16531 0.217053L0.790313 1.00277C0.761728 1.06261 0.748209 1.12911 0.751036 1.19596C0.753863 1.26281 0.772943 1.3278 0.806467 1.38476C0.839991 1.44172 0.886847 1.48876 0.942593 1.52143C0.998338 1.5541 1.06113 1.57131 1.125 1.57143H1.5V4.71429H0.75C0.650544 4.71429 0.555161 4.75568 0.484835 4.82935C0.414509 4.90303 0.375 5.00295 0.375 5.10714V5.89286C0.375 5.99705 0.414509 6.09697 0.484835 6.17065C0.555161 6.24432 0.650544 6.28571 0.75 6.28571ZM0.566719 14.1429H3.75C3.84946 14.1429 3.94484 14.1015 4.01516 14.0278C4.08549 13.9541 4.125 13.8542 4.125 13.75V12.9643C4.125 12.8601 4.08549 12.7602 4.01516 12.6865C3.94484 12.6128 3.84946 12.5714 3.75 12.5714H1.93687C2.09109 12.0661 4.20281 11.6541 4.20281 9.79982C4.20281 8.37277 3.03094 7.85714 2.11828 7.85714C1.11703 7.85714 0.533906 8.34821 0.221719 8.7779C0.016875 9.05241 0.0810938 9.31022 0.352969 9.53268L0.755156 9.87054C1.01813 10.0945 1.27078 9.99183 1.51078 9.75071C1.62916 9.6292 1.78848 9.56145 1.95422 9.56214C2.11031 9.56214 2.38922 9.63875 2.38922 9.99183C2.39062 10.6165 0 11.0643 0 13.3861V13.5825C0 13.9464 0.238125 14.1429 0.566719 14.1429Z" fill="#444444"/>
</svg>
